<?xml version="1.0" encoding="UTF-8" standalone="no"?>
<!-- Created with Inkscape (http://www.inkscape.org/) -->

<svg
   xmlns:dc="http://purl.org/dc/elements/1.1/"
   xmlns:cc="http://creativecommons.org/ns#"
   xmlns:rdf="http://www.w3.org/1999/02/22-rdf-syntax-ns#"
   xmlns:svg="http://www.w3.org/2000/svg"
   xmlns="http://www.w3.org/2000/svg"
   xmlns:sodipodi="http://sodipodi.sourceforge.net/DTD/sodipodi-0.dtd"
   xmlns:inkscape="http://www.inkscape.org/namespaces/inkscape"
   width="854.29999"
   height="167.81"
   id="svg2"
   version="1.1"
   inkscape:version="0.48.4 r9939"
   sodipodi:docname="nades.svg">
  <defs
     id="defs4" />
  <sodipodi:namedview
     id="base"
     pagecolor="#ffffff"
     bordercolor="#8f8f8f"
     borderopacity="0.42352941"
     inkscape:pageopacity="0"
     inkscape:pageshadow="2"
     inkscape:zoom="0.70632195"
     inkscape:cx="372.74191"
     inkscape:cy="60.59702"
     inkscape:document-units="px"
     inkscape:current-layer="layer2"
     showgrid="false"
     inkscape:snap-global="true"
     showguides="true"
     inkscape:guide-bbox="true"
     inkscape:window-width="1259"
     inkscape:window-height="817"
     inkscape:window-x="1927"
     inkscape:window-y="165"
     inkscape:window-maximized="0"
     fit-margin-top="40"
     fit-margin-left="40"
     fit-margin-right="40"
     fit-margin-bottom="40"
     inkscape:showpageshadow="true"
     showborder="true" />
  <metadata
     id="metadata7">
    <rdf:RDF>
      <cc:Work
         rdf:about="">
        <dc:format>image/svg+xml</dc:format>
        <dc:type
           rdf:resource="http://purl.org/dc/dcmitype/StillImage" />
        <dc:title />
      </cc:Work>
    </rdf:RDF>
  </metadata>
  <g
     inkscape:label="base"
     inkscape:groupmode="layer"
     id="layer1"
     transform="translate(-19.284642,-8.9725075)"
     style="display:none">
    <rect
       style="opacity:0.5091743;fill:none;stroke:#d1d1d1;stroke-width:1.76905274;stroke-miterlimit:0;stroke-opacity:1;stroke-dasharray:1.76905271, 1.76905271;stroke-dashoffset:0"
       id="rect3837"
       width="100.37"
       height="98.947464"
       x="39.4776"
       y="43.426781" />
    <rect
       style="opacity:0.5091743;fill:none;stroke:#d1d1d1;stroke-width:1.76905274;stroke-miterlimit:0;stroke-opacity:1;stroke-dasharray:1.76905271, 1.76905271;stroke-dashoffset:0"
       id="rect3837-7"
       width="100.37"
       height="98.947464"
       x="151.04294"
       y="43.426781" />
    <rect
       style="opacity:0.5091743;fill:none;stroke:#d1d1d1;stroke-width:1.76905274;stroke-miterlimit:0;stroke-opacity:1;stroke-dasharray:1.76905271, 1.76905271;stroke-dashoffset:0"
       id="rect3837-5"
       width="100.37"
       height="98.947464"
       x="262.60828"
       y="43.426781" />
    <rect
       style="opacity:0.5091743;fill:none;stroke:#d1d1d1;stroke-width:1.76905274;stroke-miterlimit:0;stroke-opacity:1;stroke-dasharray:1.76905271, 1.76905271;stroke-dashoffset:0"
       id="rect3837-7-9"
       width="100.37"
       height="98.947464"
       x="374.17358"
       y="43.426781" />
    <rect
       style="opacity:0.5091743;fill:none;stroke:#d1d1d1;stroke-width:1.76905274;stroke-miterlimit:0;stroke-opacity:1;stroke-dasharray:1.76905271, 1.76905271;stroke-dashoffset:0"
       id="rect3837-7-9-8"
       width="100.37"
       height="98.947464"
       x="485.73889"
       y="43.426781" />
    <rect
       style="opacity:0.5091743;fill:none;stroke:#d1d1d1;stroke-width:1.76905274;stroke-miterlimit:0;stroke-opacity:1;stroke-dasharray:1.76905271, 1.76905271;stroke-dashoffset:0"
       id="rect3837-7-9-8-1"
       width="100.37"
       height="98.947464"
       x="597.30432"
       y="43.426781" />
    <g
       inkscape:label="Layer 1"
       id="layer1-7"
       transform="translate(598.7863,169.75239)">
      <path
         sodipodi:nodetypes="scscssssss"
         inkscape:connector-curvature="0"
         id="path2993"
         d="m 32.088324,10.809885 c -17.232814,0 -26.5405073,9.20136 -31.32244349,22.294264 C 6.9823976,44.762472 14.85551,55.38083 32.088324,55.38083 c 17.232814,0 24.413358,-9.183777 31.347166,-22.276681 C 57.099424,21.445826 49.321138,10.809885 32.088324,10.809885 z m 0,8.650456 c 10.659021,0 19.18407,6.063058 19.18407,13.643808 0,7.58075 -8.525049,13.626225 -19.18407,13.626225 -10.659021,0 -19.159348,-6.045475 -19.159348,-13.626225 0,-7.58075 8.500327,-13.643808 19.159348,-13.643808 z"
         style="font-size:medium;font-style:normal;font-variant:normal;font-weight:normal;font-stretch:normal;text-indent:0;text-align:start;text-decoration:none;line-height:normal;letter-spacing:normal;word-spacing:normal;text-transform:none;direction:ltr;block-progression:tb;writing-mode:lr-tb;text-anchor:start;baseline-shift:baseline;color:#000000;fill:#ffffff;fill-opacity:1;stroke:none;stroke-width:15.37586212;marker:none;visibility:visible;display:inline;overflow:visible;enable-background:accumulate;font-family:Sans;-inkscape-font-specification:Sans" />
      <path
         sodipodi:nodetypes="scscs"
         inkscape:connector-curvature="0"
         id="path3763"
         d="m 24.571335,32.263682 c -0.03442,-5.59186 2.925812,-12.497988 7.459689,-17.399596 3.930419,4.111417 6.377221,8.281755 6.876488,16.788542 0.503796,8.583942 -2.072236,13.238738 -5.828121,18.748008 C 27.319778,45.26268 24.621337,40.387705 24.571335,32.263682 z"
         style="fill:#ffffff;stroke:none" />
    </g>
  </g>
  <g
     inkscape:groupmode="layer"
     id="layer2"
     inkscape:label="art"
     transform="translate(-19.284642,-8.9725075)">
    <path
       style="fill:#000000;fill-opacity:1;stroke:none"
       d="m 185.76707,51.360839 -27.1875,27.625 0,14.6875 0,14.718751 27.1875,27.59375 15.0625,0 15.0625,0.0312 27.1875,-27.625 0,-14.718751 0,-14.71875 -27.1875,-27.59375 -15.0625,0 -15.0625,0 z m 28.6875,4.25 24.59375,24.9375 0,13.3125 0,13.281251 -24.59375,24.9375 -13.65625,0 -13.625,0 -24.59375,-24.9375 0,-13.281251 0,-13.28125 24.59375,-24.9375 13.625,0 13.65625,-0.0312 z m -24.1875,8.375 -19.53125,19.4375 0,10.375 0,10.343751 19.53125,19.4375 10.84375,0 10.8125,0.0312 19.5625,-19.46875 0,-10.343751 0,-10.375 -19.5625,-19.4375 -10.8125,0 -10.84375,0 z m 10.5,10.09375 c 10.81022,0 19.5625,8.83002 19.5625,19.71875 0,10.888731 -8.75228,19.718751 -19.5625,19.718751 -10.81022,0 -19.59375,-8.83002 -19.59375,-19.718751 0,-10.88873 8.78353,-19.71875 19.59375,-19.71875 z m 0.40625,8.875 c -5.80821,0 -10.5,4.86233 -10.5,10.875 0,6.012669 4.69179,10.906251 10.5,10.906251 5.80821,0 10.53125,-4.893582 10.53125,-10.906251 0,-6.01267 -4.72304,-10.875 -10.53125,-10.875 z"
       id="path3921-1-9-2"
       inkscape:connector-curvature="0" />
    <g
       id="g4042"
       transform="translate(-1.7669997,-111.06369)"
       style="fill:#000000">
      <path
         sodipodi:nodetypes="ccccc"
         inkscape:connector-curvature="0"
         id="rect2998-9-0"
         d="m 61.051642,198.70542 55.278718,0 0,26.25134 -55.278718,0 z"
         style="fill:#000000;fill-opacity:1;stroke:none" />
      <path
         sodipodi:nodetypes="ccsccccscccc"
         inkscape:connector-curvature="0"
         id="path3000-9-6-0-3"
         d="m 109.41881,247.84248 c 0,0 2.56786,-4.38637 0,-4.89264 l -2.32424,0 c -2.61483,0 -1.88848,-1.67066 -1.88848,-1.67066 7.00653,-2.57907 10.89474,-7.27932 10.89474,-7.27932 -18.03375,0.33879 -35.964758,0.50881 -54.717518,0.004 0,0 4.31217,4.86908 10.894812,7.2793 0,0 0.726353,1.67068 -1.888408,1.67068 l -2.324179,0 c -2.465245,0.16873 0,4.89263 0,4.89263 l 20.676607,-0.001 z"
         style="fill:#000000;fill-opacity:1;stroke:none" />
      <path
         sodipodi:nodetypes="cccccccccc"
         inkscape:connector-curvature="0"
         id="path3812-0-9-0"
         d="m 75.393005,177.98005 c -6.447073,3.75517 -13.229564,13.06147 -13.229564,13.06147 28.845714,-0.65243 28.838709,-0.65243 54.715469,0 0,0 -8.39429,-9.19246 -15.53817,-12.94756 -1.08636,-0.66507 -0.5937,-6.59435 -0.5937,-6.59435 l 21.62774,4.53997 -0.0917,-9.76834 -20.6952,-6.23631 -25.013137,0.47599 z"
         style="fill:#000000;fill-opacity:1;stroke:none" />
    </g>
    <path
       style="fill:#000000;fill-opacity:1;fill-rule:nonzero;stroke:none"
       d="m 316.25915,52.390798 29.375,38.625 4.09375,5.40625 -4.84375,4.750002 -35.125,34.5625 c 10.41664,0.5869 21.05497,-2.6644 29.59375,-10 17.52228,-15.05327 19.55327,-41.477722 4.5,-59.000002 -7.29143,-8.48735 -17.27452,-13.31366 -27.59375,-14.34375 z m -17.78125,2.09375 c -4.07063,1.40291 -8.00115,3.43625 -11.59375,6.15625 l 21.21875,27.3125 4.21875,5.46875 -4.96875,4.812499 -25.53125,24.625003 c 3.20798,3.37254 6.85412,6.08958 10.78125,8.15625 L 329.25915,94.953298 298.4779,54.484548 z m -22.09375,17.75 c -6.86586,11.26489 -7.99574,25.22114 -3.0625,37.437502 l 18.375,-17.718752 -15.3125,-19.71875 z"
       id="path3867-0-6-1"
       inkscape:connector-curvature="0" />
    <path
       style="fill:#000000;fill-opacity:1;stroke:none"
       d="m 430.65551,55.756426 37.34489,30.98867 -42.09061,13.061769 35.92214,36.545665 -73.31988,-43.572134 40.38734,-12.33649 -38.48344,-25.29239 z"
       id="path4124-2-4"
       inkscape:connector-curvature="0"
       sodipodi:nodetypes="cccccccc" />
    <path
       style="fill:#000000;fill-opacity:1;stroke:none"
       d="m 495.5067,54.541831 82.77797,0 c 0,78.123859 -27.91589,59.893389 -41.38898,78.548449 -11.74578,-17.61867 -40.78477,0.42458 -41.38899,-78.548449 z"
       id="rect3019-4"
       inkscape:connector-curvature="0"
       sodipodi:nodetypes="cccc" />
    <path
       style="fill:#000000;stroke:none"
       d="m 627.39511,129.55071 c -24.65972,2.26389 -25.81676,-24.55841 -17.09488,-40.930687 1.3955,16.372277 3.13988,13.507137 6.27974,16.781587 0,-21.693257 20.78572,-33.620947 23.89698,-44.179707 1.22206,3.60056 2.79494,11.02817 -2.43819,17.57708 13.25727,-11.05128 33.14512,-15.36172 37.15227,-27.01656 0.71154,9.10193 -5.23314,25.78633 -13.25727,33.15385 12.21064,-7.77683 19.53702,3.27446 25.11903,-7.77683 -3.35274,16.76772 -10.81514,19.64673 -17.79265,24.149087 5.858,2.8744 17.09489,7.36753 20.93253,-3.274437 3.13986,15.553657 -13.25727,32.744537 -32.44541,32.744537 5.61156,-6.98133 6.62863,-5.7303 10.46627,-15.14436 -4.88427,2.86515 -4.88427,2.45585 -9.76851,4.91169 2.79099,-9.00475 0.34887,-13.09782 4.53537,-17.19089 -6.97751,-1.22791 -15.3505,6.13961 -18.14151,11.86989 -2.44212,-14.73503 -2.79101,-20.056017 2.79101,-25.377007 -11.16401,0 -19.53703,14.325747 -13.60615,25.786317 -7.67525,-3.68375 -9.41963,-7.36752 -10.46625,-12.2792 -3.48876,11.05129 -0.69775,13.09782 2.09325,16.37228 -2.81858,-0.62437 -2.97038,-1.22331 -5.93088,-3.68377 -1.64616,3.94754 7.67525,13.50713 7.67525,13.50713 z"
       id="path3831-0"
       inkscape:connector-curvature="0"
       sodipodi:nodetypes="ccccccccccccccccccccc" />
    <g
       inkscape:label="Layer 1"
       id="layer1-8"
       transform="matrix(1.5348787,0,0,1.5348787,731.19293,41.924582)"
       style="fill:#000000">
      <path
         sodipodi:nodetypes="scscssssss"
         inkscape:connector-curvature="0"
         id="path2993-0"
         d="m 32.088324,10.809885 c -17.232814,0 -26.5405073,9.20136 -31.32244349,22.294264 C 6.9823976,44.762472 14.85551,55.38083 32.088324,55.38083 c 17.232814,0 24.413358,-9.183777 31.347166,-22.276681 C 57.099424,21.445826 49.321138,10.809885 32.088324,10.809885 z m 0,8.650456 c 10.659021,0 19.18407,6.063058 19.18407,13.643808 0,7.58075 -8.525049,13.626225 -19.18407,13.626225 -10.659021,0 -19.159348,-6.045475 -19.159348,-13.626225 0,-7.58075 8.500327,-13.643808 19.159348,-13.643808 z"
         style="font-size:medium;font-style:normal;font-variant:normal;font-weight:normal;font-stretch:normal;text-indent:0;text-align:start;text-decoration:none;line-height:normal;letter-spacing:normal;word-spacing:normal;text-transform:none;direction:ltr;block-progression:tb;writing-mode:lr-tb;text-anchor:start;baseline-shift:baseline;color:#000000;fill:#000000;fill-opacity:1;stroke:none;stroke-width:15.37586212;marker:none;visibility:visible;display:inline;overflow:visible;enable-background:accumulate;font-family:Sans;-inkscape-font-specification:Sans" />
      <path
         sodipodi:nodetypes="scscs"
         inkscape:connector-curvature="0"
         id="path3763-2"
         d="m 24.571335,32.263682 c -0.03442,-5.59186 2.925812,-12.497988 7.459689,-17.399596 3.930419,4.111417 6.377221,8.281755 6.876488,16.788542 0.503796,8.583942 -2.072236,13.238738 -5.828121,18.748008 C 27.319778,45.26268 24.621337,40.387705 24.571335,32.263682 z"
         style="fill:#000000;stroke:none" />
    </g>
  </g>
</svg>
